<svg width="800" height="400" viewBox="0 0 800 400" xmlns="http://www.w3.org/2000/svg"><mask id="satori_om-id"><rect x="0" y="0" width="800" height="400" fill="#fff"/></mask><rect x="0" y="0" width="800" height="400" fill="#fff"/><clipPath id="satori_cp-id-0"><rect x="363" y="128" width="75" height="65"/></clipPath><mask id="satori_om-id-0"><rect x="363" y="128" width="75" height="65" fill="#fff"/></mask><image x="363" y="128" width="75" height="65" href="data:image/svg+xml;utf8,%3Csvg  fill=%22%23000%22 xmlns=%22http://www.w3.org/2000/svg%22 width=%22NaN%22 height=%22null%22 viewBox=%220 0 75 65%22%3E%3Cpath d=%22M108.59.25l36.95 64H.64l36.95-60z%22%3E%3C/path%3E%3C/svg%3E" preserveAspectRatio="none" clip-path="url(#satori_cp-id-0)" mask="url(#satori_om-id-0)"/><mask id="satori_om-id-0-0"><rect x="363" y="128" width="0" height="65" fill="#fff"/></mask><mask id="satori_om-id-1"><rect x="335" y="233" width="131" height="39" fill="#fff"/></mask><g  ><path fill="black" d="M341.9 264L337.0 264L337.0 240.7L341.9 240.7L341.9 250.3L351.9 250.3L351.9 240.7L356.8 240.7L356.8 264L351.9 264L351.9 254.4L341.9 254.4L341.9 264ZM381.4 248.9L381.4 248.9L376.5 248.9Q376.3 247.9 375.9 247.2Q375.5 246.4 374.8 245.9Q374.2 245.3 373.3 245.0Q372.4 244.8 371.4 244.8L371.4 244.8Q369.6 244.8 368.3 245.7Q367.0 246.5 366.2 248.2Q365.5 249.9 365.5 252.4L365.5 252.4Q365.5 254.9 366.2 256.5Q367.0 258.2 368.3 259.1Q369.6 260.0 371.4 260.0L371.4 260.0Q372.4 260.0 373.2 259.7Q374.1 259.4 374.8 258.9Q375.4 258.4 375.8 257.7Q376.3 257.0 376.5 256.0L376.5 256.0L381.4 256.1Q381.2 257.7 380.5 259.2Q379.7 260.6 378.4 261.8Q377.1 263.0 375.3 263.6Q373.6 264.3 371.3 264.3L371.3 264.3Q368.2 264.3 365.8 262.9Q363.3 261.5 361.9 258.8Q360.5 256.2 360.5 252.4L360.5 252.4Q360.5 248.6 361.9 245.9Q363.4 243.2 365.8 241.8Q368.3 240.4 371.3 240.4L371.3 240.4Q373.4 240.4 375.1 241.0Q376.8 241.5 378.2 242.6Q379.5 243.7 380.3 245.3Q381.2 246.9 381.4 248.9ZM399.9 264L385.0 264L385.0 240.7L389.9 240.7L389.9 259.9L399.9 259.9L399.9 264ZM411.6 264.3L411.6 264.3Q409.0 264.3 407.1 263.4Q405.1 262.6 403.9 261.0Q402.8 259.5 402.8 257.4L402.8 257.4L407.7 257.4Q407.8 258.3 408.3 258.9Q408.8 259.6 409.7 259.9Q410.5 260.3 411.6 260.3L411.6 260.3Q412.7 260.3 413.6 259.9Q414.5 259.5 414.9 258.8Q415.4 258.1 415.4 257.1L415.4 257.1Q415.4 256.2 414.9 255.5Q414.4 254.8 413.4 254.4Q412.5 253.9 411.2 253.9L411.2 253.9L409.0 253.9L409.0 250.3L411.2 250.3Q412.3 250.3 413.1 249.9Q414.0 249.6 414.5 248.9Q414.9 248.2 414.9 247.3L414.9 247.3Q414.9 246.4 414.5 245.7Q414.1 245.1 413.4 244.7Q412.6 244.3 411.6 244.3L411.6 244.3Q410.6 244.3 409.8 244.7Q409.0 245.0 408.5 245.7Q408.0 246.3 407.9 247.2L407.9 247.2L403.2 247.2Q403.3 245.2 404.4 243.7Q405.5 242.1 407.4 241.3Q409.3 240.4 411.7 240.4L411.7 240.4Q414.1 240.4 415.9 241.3Q417.7 242.2 418.7 243.6Q419.7 245.1 419.7 247.0L419.7 247.0Q419.7 248.9 418.5 250.2Q417.3 251.5 415.3 251.9L415.3 251.9L415.3 252.1Q417.9 252.4 419.2 253.8Q420.6 255.3 420.5 257.5L420.5 257.5Q420.6 259.5 419.4 261Q418.3 262.5 416.2 263.4Q414.2 264.3 411.6 264.3ZM433.0 264.3L433.0 264.3Q431.2 264.3 429.6 263.7Q427.9 263.1 426.6 261.8Q425.3 260.5 424.5 258.3Q423.7 256.1 423.7 252.9L423.7 252.9Q423.7 250.0 424.4 247.6Q425.1 245.3 426.3 243.7Q427.6 242.1 429.3 241.3Q431.0 240.4 433.2 240.4L433.2 240.4Q435.5 240.4 437.3 241.3Q439.1 242.2 440.2 243.8Q441.3 245.3 441.5 247.2L441.5 247.2L436.6 247.2Q436.4 246.0 435.4 245.3Q434.5 244.6 433.2 244.6L433.2 244.6Q430.9 244.6 429.7 246.6Q428.6 248.6 428.5 252.0L428.5 252.0L428.7 252.0Q429.2 250.9 430.1 250.2Q431.0 249.5 432.2 249.1Q433.3 248.7 434.6 248.7L434.6 248.7Q436.6 248.7 438.3 249.7Q439.9 250.6 440.8 252.3Q441.7 254.0 441.7 256.2L441.7 256.2Q441.7 258.6 440.6 260.4Q439.5 262.3 437.6 263.3Q435.6 264.3 433.0 264.3ZM433.0 260.5L433.0 260.5Q434.1 260.5 435.0 259.9Q435.9 259.4 436.4 258.4Q437.0 257.5 437.0 256.3L437.0 256.3Q437.0 255.2 436.4 254.3Q435.9 253.3 435.1 252.8Q434.2 252.3 433.0 252.3L433.0 252.3Q432.2 252.3 431.5 252.6Q430.7 252.9 430.2 253.5Q429.7 254.0 429.4 254.8Q429.0 255.5 429.0 256.4L429.0 256.4Q429.0 257.5 429.6 258.4Q430.1 259.3 431.0 259.9Q431.9 260.5 433.0 260.5ZM454.3 264.5L454.3 264.5Q451.4 264.5 449.3 263.1Q447.2 261.6 446.1 258.9Q444.9 256.2 444.9 252.4L444.9 252.4Q444.9 248.6 446.1 245.9Q447.2 243.2 449.3 241.8Q451.4 240.4 454.3 240.4L454.3 240.4Q457.3 240.4 459.4 241.8Q461.5 243.2 462.6 245.9Q463.8 248.6 463.7 252.4L463.7 252.4Q463.7 256.2 462.6 258.9Q461.5 261.6 459.4 263.1Q457.3 264.5 454.3 264.5ZM454.3 260.4L454.3 260.4Q456.3 260.4 457.5 258.4Q458.7 256.4 458.7 252.4L458.7 252.4Q458.7 249.7 458.2 248.0Q457.6 246.2 456.7 245.3Q455.7 244.4 454.3 244.4L454.3 244.4Q452.4 244.4 451.2 246.4Q450.0 248.4 450.0 252.4L450.0 252.4Q450.0 255.1 450.5 256.9Q451.0 258.6 452.0 259.5Q453.0 260.4 454.3 260.4Z "/></g></svg>